<svg height="512" viewBox="0 0 60 60" width="512" xmlns="http://www.w3.org/2000/svg"><g id="027---Forum"><path id="Shape" d="m56 0h-52c-2.209139 0-4 1.790861-4 4v52c0 2.209139 1.790861 4 4 4h52c2.209139 0 4-1.790861 4-4v-52c0-2.209139-1.790861-4-4-4zm-52 2h52c1.1045695 0 2 .8954305 2 2v4h-56v-4c0-1.1045695.8954305-2 2-2zm52 56h-52c-1.1045695 0-2-.8954305-2-2v-46h56v46c0 1.1045695-.8954305 2-2 2z"/><circle id="Oval" cx="5" cy="5" r="1"/><circle id="Oval" cx="9" cy="5" r="1"/><circle id="Oval" cx="13" cy="5" r="1"/><path id="Shape" d="m42 25c1.6568542 0 3-1.3431458 3-3v-6c0-1.6568542-1.3431458-3-3-3h-32c-1.65685425 0-3 1.3431458-3 3v.418l-2.232 1.273c-.472668.2645145-.76601775.7633078-.76746822 1.3049542s.28922367 1.0420036.76046822 1.3090458l2.239 1.277v.418c0 1.6568542 1.34314575 3 3 3zm-33-3v-1c.00003846-.3593639-.19275122-.6911149-.505-.869l-1.984-1.131 1.989-1.131c.31032331-.1791631.50106497-.5106721.5-.869v-1c0-.5522847.44771525-1 1-1h32c.5522847 0 1 .4477153 1 1v6c0 .5522847-.4477153 1-1 1h-32c-.55228475 0-1-.4477153-1-1z"/><path id="Shape" d="m12 20h1c.5522847 0 1-.4477153 1-1s-.4477153-1-1-1h-1c-.5522847 0-1 .4477153-1 1s.4477153 1 1 1z"/><path id="Shape" d="m28 20h2c.5522847 0 1-.4477153 1-1s-.4477153-1-1-1h-2c-.5522847 0-1 .4477153-1 1s.4477153 1 1 1z"/><path id="Shape" d="m34 20h6c.5522847 0 1-.4477153 1-1s-.4477153-1-1-1h-6c-.5522847 0-1 .4477153-1 1s.4477153 1 1 1z"/><path id="Shape" d="m17 20h7c.5522847 0 1-.4477153 1-1s-.4477153-1-1-1h-7c-.5522847 0-1 .4477153-1 1s.4477153 1 1 1z"/><path id="Shape" d="m47 40c1.6568542 0 3-1.3431458 3-3v-6c0-1.6568542-1.3431458-3-3-3h-32c-1.6568542 0-3 1.3431458-3 3v.418l-2.232 1.273c-.472668.2645145-.76601775.7633078-.76746822 1.3049542s.28922367 1.0420036.76046822 1.3090458l2.239 1.277v.418c0 1.6568542 1.3431458 3 3 3zm-33-3v-1c.0000385-.3593639-.1927512-.6911149-.505-.869l-1.984-1.131 1.989-1.131c.3103233-.1791631.501065-.5106721.5-.869v-1c0-.5522847.4477153-1 1-1h32c.5522847 0 1 .4477153 1 1v6c0 .5522847-.4477153 1-1 1h-32c-.5522847 0-1-.4477153-1-1z"/><path id="Shape" d="m17 35h1c.5522847 0 1-.4477153 1-1s-.4477153-1-1-1h-1c-.5522847 0-1 .4477153-1 1s.4477153 1 1 1z"/><path id="Shape" d="m33 35h2c.5522847 0 1-.4477153 1-1s-.4477153-1-1-1h-2c-.5522847 0-1 .4477153-1 1s.4477153 1 1 1z"/><path id="Shape" d="m39 35h6c.5522847 0 1-.4477153 1-1s-.4477153-1-1-1h-6c-.5522847 0-1 .4477153-1 1s.4477153 1 1 1z"/><path id="Shape" d="m22 35h7c.5522847 0 1-.4477153 1-1s-.4477153-1-1-1h-7c-.5522847 0-1 .4477153-1 1s.4477153 1 1 1z"/><path id="Shape" d="m53 43h-32c-1.6568542 0-3 1.3431458-3 3v.418l-2.235 1.273c-.472668.2645145-.7660178.7633078-.7674682 1.3049542-.0014505.5416464.2892237 1.0420036.7604682 1.3090458l2.242 1.277v.418c0 1.6568542 1.3431458 3 3 3h32c1.6568542 0 3-1.3431458 3-3v-6c0-1.6568542-1.3431458-3-3-3zm1 9c0 .5522847-.4477153 1-1 1h-32c-.5522847 0-1-.4477153-1-1v-1c.001065-.3583279-.1896767-.6898369-.5-.869l-1.989-1.131 1.989-1.131c.3103233-.1791631.501065-.5106721.5-.869v-1c0-.5522847.4477153-1 1-1h32c.5522847 0 1 .4477153 1 1z"/><path id="Shape" d="m24 48h-1c-.5522847 0-1 .4477153-1 1s.4477153 1 1 1h1c.5522847 0 1-.4477153 1-1s-.4477153-1-1-1z"/><path id="Shape" d="m41 48h-2c-.5522847 0-1 .4477153-1 1s.4477153 1 1 1h2c.5522847 0 1-.4477153 1-1s-.4477153-1-1-1z"/><path id="Shape" d="m51 48h-6c-.5522847 0-1 .4477153-1 1s.4477153 1 1 1h6c.5522847 0 1-.4477153 1-1s-.4477153-1-1-1z"/><path id="Shape" d="m35 48h-7c-.5522847 0-1 .4477153-1 1s.4477153 1 1 1h7c.5522847 0 1-.4477153 1-1s-.4477153-1-1-1z"/></g></svg>